<svg xmlns="http://www.w3.org/2000/svg" viewBox="0 0 128 128">
  <rect width="128" height="128" rx="20" fill="#2c5f7f"/>
  <path d="M34 38h60a8 8 0 0 1 8 8v44a8 8 0 0 1-8 8H34a8 8 0 0 1-8-8V46a8 8 0 0 1 8-8Z" fill="#f9fafb"/>
  <path d="M48 38v-7a9 9 0 0 1 9-9h14a9 9 0 0 1 9 9v7h-9v-6a2 2 0 0 0-2-2H59a2 2 0 0 0-2 2v6h-9Z" fill="#3a8fa3"/>
  <path d="M41 61h46M41 75h32" stroke="#2d3748" stroke-width="8" stroke-linecap="round"/>
  <circle cx="91" cy="77" r="14" fill="#e8855d"/>
  <path d="m84 77 5 5 10-12" fill="none" stroke="#fff" stroke-width="5" stroke-linecap="round" stroke-linejoin="round"/>
</svg>
